<svg width="163" height="54" viewBox="0 0 163 54" fill="none" xmlns="http://www.w3.org/2000/svg">
<path d="M5.53254 36.7651C5.73756 36.0903 6.11343 35.6717 6.66869 35.5008C7.40334 35.3043 8.15507 35.2104 8.91535 35.2275C9.69271 35.2104 10.4701 35.2958 11.2218 35.5008C11.8027 35.6973 12.2298 36.1757 12.3665 36.7651L17.5432 53.5937C17.5432 53.6962 17.4834 53.7475 17.3638 53.7475H13.981C13.8273 53.7646 13.6906 53.6621 13.6479 53.5169L12.2811 49.0492C12.2554 48.8868 12.1102 48.7758 11.9479 48.7758H5.88278C5.71193 48.7758 5.56671 48.8954 5.54963 49.0577L4.18283 53.4741C4.15721 53.6364 4.01198 53.7475 3.84968 53.7475H0.492494C0.355815 53.7475 0.287476 53.6962 0.287476 53.5937L5.53254 36.7651ZM9.22288 39.063C9.18871 38.9349 9.146 38.8068 9.09474 38.6872C9.05203 38.6274 8.98369 38.5932 8.91535 38.5932C8.82993 38.5932 8.73596 38.747 8.63345 39.063L6.83099 44.9488C6.83954 44.9744 6.83954 45 6.83099 45.0257C6.82245 45.0427 6.82245 45.0598 6.81391 45.0769C6.81391 45.1965 6.88225 45.2563 7.01893 45.2563H10.8459C10.9826 45.2563 11.051 45.1965 11.051 45.0769C11.051 45.0598 11.051 45.0427 11.051 45.0257C11.0424 45 11.0424 44.9744 11.051 44.9488L9.22288 39.063Z" fill="#FFD335"/>
<path d="M19.4055 35.2446H22.0366C22.1647 35.2189 22.2843 35.3044 22.3099 35.4239C22.3185 35.4496 22.3185 35.4837 22.3099 35.5179V53.4912C22.3356 53.6194 22.2501 53.739 22.1305 53.7646C22.1049 53.7731 22.0707 53.7731 22.0366 53.7646H19.4055C19.2859 53.7902 19.1663 53.7133 19.1321 53.5937C19.1236 53.5596 19.1236 53.5254 19.1321 53.4998V35.5008C19.1151 35.3812 19.2005 35.2616 19.3201 35.2446C19.3542 35.2446 19.3799 35.2446 19.4055 35.2446Z" fill="#FFD335"/>
<path d="M24.7274 35.2446H27.367C27.4952 35.2189 27.6147 35.3044 27.6404 35.4239C27.6489 35.4496 27.6489 35.4837 27.6404 35.5179V53.4912C27.666 53.6194 27.5806 53.739 27.461 53.7646C27.4354 53.7731 27.4012 53.7731 27.367 53.7646H24.7359C24.6078 53.7902 24.4882 53.7048 24.4626 53.5852C24.454 53.5596 24.454 53.5254 24.4626 53.4912V35.5008C24.4455 35.3727 24.5309 35.2616 24.6591 35.2446C24.6761 35.2446 24.7018 35.2446 24.7274 35.2446Z" fill="#FFD335"/>
<path d="M30.0578 35.2445H32.6889C32.8085 35.2274 32.9281 35.3128 32.9452 35.4324C32.9452 35.4581 32.9452 35.4837 32.9452 35.5093V38.1404C32.9708 38.2685 32.8854 38.3881 32.7658 38.4052C32.7402 38.4137 32.7145 38.4137 32.6889 38.4052H30.0578C29.9297 38.4308 29.8101 38.3454 29.7845 38.2258C29.7759 38.2002 29.7759 38.166 29.7845 38.1319V35.5008C29.7589 35.3726 29.8443 35.253 29.9639 35.2274C29.998 35.2445 30.0237 35.2445 30.0578 35.2445ZM29.7845 40.5579C29.7589 40.4298 29.8443 40.3102 29.9639 40.2845C29.9895 40.276 30.0237 40.276 30.0578 40.2845H32.6889C32.8085 40.2675 32.9281 40.3529 32.9452 40.4725C32.9452 40.4981 32.9452 40.5237 32.9452 40.5494V53.4826C32.9708 53.6108 32.8854 53.7304 32.7658 53.7474C32.7402 53.756 32.7145 53.756 32.6889 53.7474H30.0578C29.9297 53.7731 29.8101 53.6876 29.7845 53.5681C29.7759 53.5424 29.7759 53.5083 29.7845 53.4741V40.5579Z" fill="#FFD335"/>
<path d="M35.8497 40.3017H43.1279C43.7088 40.2846 44.2897 40.4298 44.7937 40.7288C45.2379 41.0022 45.6223 41.378 45.9042 41.8222C46.1946 42.2835 46.3996 42.7875 46.5278 43.3172C46.6559 43.8553 46.7157 44.4106 46.7157 44.9659V53.4827C46.7413 53.6108 46.6559 53.7304 46.5363 53.7475C46.5107 53.7561 46.4851 53.7561 46.4594 53.7475H37.4472C36.9773 53.7646 36.5246 53.5937 36.1829 53.2691C35.8583 52.9531 35.5934 52.5687 35.4226 52.1415C35.2432 51.7315 35.1151 51.2958 35.0467 50.8516C34.9869 50.527 34.9528 50.2024 34.9442 49.8692C34.9528 49.4079 35.004 48.9466 35.098 48.5024C35.1919 48.0241 35.3628 47.5542 35.5849 47.1186C35.7985 46.7 36.0974 46.3327 36.4648 46.0422C36.8406 45.7432 37.3019 45.5895 37.7803 45.6066H42.0942C42.4787 45.6322 42.8631 45.5126 43.1706 45.2819C43.4183 45.1025 43.5635 44.8206 43.5721 44.5217C43.5635 44.2568 43.4696 44.0091 43.2987 43.7956C43.1535 43.5649 42.8972 43.4282 42.6239 43.4368H35.8412C35.713 43.4624 35.5934 43.377 35.5678 43.2574C35.5593 43.2318 35.5593 43.1976 35.5678 43.1634V40.5323C35.5507 40.4042 35.6447 40.2931 35.7728 40.2761C35.807 40.3017 35.8241 40.3017 35.8497 40.3017ZM43.3073 50.732C43.4354 50.7577 43.555 50.6722 43.5806 50.5526C43.5892 50.527 43.5892 50.4928 43.5806 50.4587V48.9125C43.6063 48.7843 43.5208 48.6648 43.4012 48.6391C43.3756 48.6306 43.3414 48.6306 43.3073 48.6391H38.7285C38.4893 48.6391 38.2672 48.7502 38.1305 48.9381C37.9768 49.126 37.8999 49.3567 37.8999 49.5959C37.8999 49.8778 37.9939 50.1511 38.1733 50.3732C38.3441 50.5953 38.6175 50.7235 38.8994 50.7064L43.3073 50.732Z" fill="#FFD335"/>
<path d="M51.9266 52.9274C51.9266 53.4655 51.6874 53.756 51.2005 53.756H49.4749C49.2528 53.7731 49.0392 53.6449 48.9367 53.4485C48.8171 53.2264 48.7659 52.9786 48.7659 52.7223V42.0101C48.7744 41.5574 48.9709 41.1388 49.304 40.8313C49.6628 40.4725 50.1497 40.276 50.6537 40.2931H56.4882C57.0862 40.2845 57.6756 40.4127 58.2224 40.6689C58.7435 40.9167 59.2218 41.2498 59.6233 41.6599C60.0248 42.0699 60.3494 42.5483 60.563 43.0779C60.7851 43.599 60.8961 44.1628 60.8961 44.7266V53.4826C60.8961 53.6535 60.8022 53.756 60.6143 53.756H58.0088C57.8807 53.7816 57.7611 53.6962 57.7354 53.5766C57.7269 53.551 57.7269 53.5168 57.7354 53.4826V45.2733C57.7525 44.9145 57.6842 44.5472 57.539 44.2141C57.4194 43.9578 57.24 43.7271 57.0008 43.5734C56.7531 43.4111 56.4797 43.3 56.1893 43.2488C55.8561 43.189 55.5229 43.1548 55.1812 43.1633H52.6869C52.4904 43.1633 52.2939 43.2402 52.1487 43.3684C52.0035 43.4709 51.918 43.6332 51.9009 43.804L51.9266 52.9274Z" fill="#FFD335"/>
<path d="M73.556 50.6039C73.6841 50.5783 73.8037 50.6637 73.8294 50.7833C73.8379 50.8089 73.8379 50.8431 73.8294 50.8772V53.5083C73.855 53.6365 73.7696 53.7561 73.65 53.7817C73.6243 53.7902 73.5902 53.7902 73.556 53.7817H68.7039C67.8326 53.7988 66.9698 53.6279 66.1753 53.2777C64.7914 52.6712 63.6895 51.5521 63.1 50.1597C62.8352 49.5361 62.69 48.8612 62.69 48.1864V46.0337C62.6815 45.2307 62.8011 44.4362 63.0659 43.676C63.3051 43.0011 63.7066 42.3861 64.2276 41.8906C64.8085 41.3695 65.5005 40.9765 66.2522 40.7544C67.209 40.4725 68.1999 40.3359 69.1908 40.353H73.5475C73.6756 40.3273 73.7952 40.4127 73.8208 40.5323C73.8294 40.558 73.8294 40.5921 73.8208 40.6263V43.2574C73.8464 43.3855 73.761 43.5051 73.6414 43.5307C73.6158 43.5393 73.5816 43.5393 73.5475 43.5307H68.6697C67.6703 43.5307 66.9271 43.8297 66.4401 44.4362C65.9361 45.0684 65.6799 45.8543 65.7055 46.6573V47.7678C65.6713 48.5281 65.9276 49.2798 66.4145 49.8692C66.8929 50.4074 67.6446 50.6808 68.6697 50.6808L73.556 50.6039Z" fill="#FFD335"/>
<path d="M78.4595 48.7929C78.4595 49.0491 78.5278 49.2883 78.6645 49.5019C78.8097 49.724 78.9977 49.9205 79.2198 50.0657C79.476 50.2451 79.7579 50.3732 80.0569 50.4501C80.3901 50.5441 80.7403 50.5953 81.0906 50.5953H87.2326C87.3522 50.5697 87.4718 50.6466 87.5059 50.7662C87.5145 50.8004 87.5145 50.8345 87.5059 50.8602V53.4912C87.5316 53.6194 87.4462 53.739 87.3266 53.7646C87.3009 53.7731 87.2668 53.7731 87.2326 53.7646H82.8759C81.6544 53.7902 80.4413 53.6706 79.2539 53.4058C78.3912 53.2179 77.5796 52.8249 76.9048 52.2611C76.3068 51.7229 75.8626 51.031 75.6405 50.2622C75.3757 49.314 75.2475 48.3316 75.2646 47.3407C75.2219 46.1618 75.4355 44.9829 75.8968 43.8895C76.2641 43.0523 76.8364 42.3092 77.5455 41.7368C78.2203 41.2072 79.0062 40.8228 79.8434 40.6092C80.6805 40.3956 81.5433 40.2931 82.4146 40.2846C83.3458 40.2675 84.2769 40.3956 85.1739 40.6605C85.8743 40.874 86.5321 41.2328 87.0788 41.7197C87.5743 42.1725 87.9587 42.7448 88.1723 43.3855C88.4115 44.0945 88.531 44.8292 88.5225 45.5809V48.2718C88.5481 48.3999 88.4627 48.5195 88.3431 48.5451C88.3175 48.5537 88.2833 48.5537 88.2491 48.5451H78.7158C78.5876 48.5281 78.4766 48.6135 78.4595 48.7416C78.4595 48.7587 78.451 48.7758 78.4595 48.7929ZM85.3447 45.5126C85.4728 45.5382 85.5924 45.4528 85.6181 45.3332C85.6266 45.3076 85.6266 45.2734 85.6181 45.2392C85.6266 44.59 85.2764 44.0006 84.7126 43.6759C84.1146 43.2915 83.2689 43.0951 82.184 43.0951C81.7996 43.1036 81.4152 43.1549 81.0393 43.2488C80.6207 43.3513 80.2107 43.4966 79.8263 43.6759C79.4675 43.8383 79.1343 44.0689 78.861 44.3508C78.6218 44.5814 78.4766 44.9061 78.4766 45.2392C78.451 45.3673 78.5364 45.4869 78.656 45.504C78.6816 45.5126 78.7072 45.5126 78.7329 45.504L85.3447 45.5126Z" fill="#FFD335"/>
<path d="M92.5204 35.2445H102.122C102.609 35.2445 103.087 35.3385 103.54 35.5264C104.061 35.7571 104.531 36.0902 104.907 36.5088C105.684 37.3203 106.094 38.5419 106.146 40.1735V40.7629C106.146 42.2749 105.966 43.3769 105.607 44.0689C105.377 44.402 105.129 44.7095 104.864 45.0085C104.557 45.3331 104.198 45.5979 103.805 45.7944L103.737 45.8713C103.711 45.9055 103.694 45.9567 103.702 45.9994C103.702 46.0336 103.711 46.0678 103.728 46.102C104.061 46.512 104.343 46.9647 104.565 47.4517C104.728 47.8361 104.873 48.2376 105.018 48.6476L106.436 53.0128C106.47 53.1495 106.539 53.2776 106.632 53.3887C106.726 53.4997 106.769 53.5681 106.769 53.6108C106.769 53.6962 106.718 53.7389 106.615 53.7389H103.053C102.951 53.7389 102.84 53.6535 102.72 53.4656C102.618 53.3289 102.541 53.1751 102.489 53.0128L100.892 48.4938C100.653 47.5285 100.157 46.9989 99.4226 46.8964H96.2705C96.1424 46.8708 96.0228 46.9562 95.9971 47.0758C95.9886 47.1014 95.9886 47.1356 95.9971 47.1698V53.4826C96.0228 53.6108 95.9373 53.7304 95.8177 53.756C95.7921 53.7645 95.7579 53.7645 95.7238 53.756H92.4862C92.358 53.7816 92.2385 53.6962 92.2128 53.5766C92.2043 53.551 92.2043 53.5168 92.2128 53.4826V35.5008C92.1872 35.3726 92.2726 35.2616 92.4008 35.236C92.452 35.2274 92.4862 35.236 92.5204 35.2445ZM96.2619 38.6017C96.1338 38.5761 96.0142 38.6615 95.9886 38.7811C95.98 38.8067 95.98 38.8409 95.9886 38.875V43.0779C95.9886 43.2573 96.0825 43.3513 96.2619 43.3513H100.935C101.234 43.3257 101.524 43.1975 101.746 42.9925C102.011 42.7448 102.199 42.4372 102.301 42.087C102.438 41.6599 102.498 41.2157 102.498 40.7715C102.498 40.5494 102.489 40.3358 102.464 40.1137C102.438 39.9172 102.378 39.7293 102.293 39.5584C102.02 38.9946 101.686 38.6786 101.311 38.6273L96.2619 38.6017Z" fill="white"/>
<path d="M111.203 48.7928C111.203 49.0491 111.271 49.2883 111.408 49.5019C111.553 49.724 111.741 49.9204 111.963 50.0656C112.219 50.245 112.501 50.3732 112.8 50.4501C113.133 50.544 113.483 50.5953 113.834 50.5953H119.976C120.104 50.5697 120.223 50.6551 120.249 50.7747C120.258 50.8003 120.258 50.8345 120.249 50.8686V53.4997C120.275 53.6279 120.189 53.7474 120.07 53.7731C120.044 53.7816 120.01 53.7816 119.976 53.7731H115.619C114.398 53.7987 113.184 53.6791 111.989 53.4143C111.126 53.2264 110.323 52.8334 109.639 52.2696C109.041 51.7314 108.597 51.0395 108.375 50.2707C108.11 49.3225 107.982 48.3401 107.999 47.3492C107.956 46.1788 108.179 45.0085 108.631 43.9322C108.999 43.095 109.571 42.3518 110.28 41.7795C110.955 41.2498 111.741 40.8654 112.578 40.6519C113.415 40.4383 114.278 40.3358 115.149 40.3273C116.08 40.3102 117.011 40.4383 117.908 40.7031C118.617 40.9167 119.267 41.2755 119.822 41.7624C120.317 42.2151 120.702 42.7875 120.915 43.4282C121.155 44.1372 121.274 44.8718 121.266 45.6236V48.3144C121.291 48.4426 121.206 48.5622 121.086 48.5878C121.061 48.5963 121.026 48.5963 120.992 48.5878H111.459C111.331 48.5707 111.22 48.6561 111.203 48.7843C111.203 48.7843 111.203 48.7843 111.203 48.7928ZM118.096 45.5125C118.225 45.5382 118.344 45.4527 118.37 45.3331C118.378 45.3075 118.378 45.2733 118.37 45.2392C118.37 44.5899 118.028 44.0005 117.464 43.6759C116.858 43.2915 116.021 43.095 114.936 43.095C114.551 43.1036 114.167 43.1548 113.791 43.2488C113.372 43.3513 112.971 43.4965 112.578 43.6759C112.219 43.8382 111.886 44.0689 111.613 44.3508C111.365 44.5814 111.228 44.906 111.228 45.2392C111.203 45.3673 111.288 45.4869 111.408 45.5125C111.433 45.5211 111.467 45.5211 111.502 45.5125H118.096Z" fill="white"/>
<path d="M126.331 52.9274C126.331 53.4655 126.092 53.756 125.605 53.756H123.88C123.658 53.7731 123.444 53.6449 123.342 53.4485C123.23 53.2264 123.171 52.9786 123.171 52.7223V42.0101C123.179 41.5574 123.376 41.1388 123.709 40.8313C124.068 40.4725 124.555 40.276 125.059 40.2931H130.893C131.491 40.2845 132.08 40.4127 132.627 40.6689C133.148 40.9167 133.627 41.2498 134.037 41.6599C134.438 42.0699 134.763 42.5483 134.976 43.0779C135.198 43.599 135.309 44.1628 135.309 44.7266V53.4826C135.309 53.662 135.216 53.756 135.036 53.756H132.422C132.294 53.7731 132.183 53.6876 132.166 53.5595C132.166 53.5339 132.166 53.5082 132.166 53.4826V45.2733C132.183 44.9145 132.115 44.5472 131.969 44.2141C131.85 43.9578 131.67 43.7271 131.431 43.5734C131.183 43.4111 130.91 43.3 130.62 43.2488C130.287 43.189 129.953 43.1548 129.612 43.1633H127.109C126.912 43.1633 126.716 43.2402 126.571 43.3684C126.425 43.4709 126.34 43.6332 126.323 43.804L126.331 52.9274Z" fill="white"/>
<path d="M141.759 50.3391C141.733 50.4672 141.819 50.5868 141.938 50.6124C141.964 50.621 141.998 50.621 142.032 50.6124H144.185C144.305 50.621 144.407 50.7235 144.399 50.8431C144.399 50.8516 144.399 50.8687 144.39 50.8772V53.5169C144.416 53.645 144.33 53.7646 144.211 53.7902C144.185 53.7988 144.151 53.7988 144.117 53.7902H140.871C140.273 53.8073 139.7 53.5937 139.256 53.2008C138.846 52.8506 138.615 52.3465 138.615 51.8084V43.7187C138.641 43.5905 138.556 43.4709 138.436 43.4453C138.41 43.4368 138.376 43.4368 138.342 43.4453H136.975C136.847 43.4709 136.728 43.3855 136.702 43.2659C136.693 43.2403 136.693 43.2061 136.702 43.172V40.5409C136.676 40.4213 136.753 40.3017 136.873 40.2675C136.907 40.259 136.941 40.259 136.967 40.2675H138.334C138.462 40.2932 138.581 40.2077 138.607 40.0881C138.615 40.0625 138.615 40.0283 138.607 39.9942V36.7566C138.581 36.6284 138.667 36.5088 138.786 36.4832C138.812 36.4747 138.846 36.4747 138.88 36.4832H141.511C141.64 36.4576 141.759 36.543 141.785 36.6626C141.793 36.6882 141.793 36.7224 141.785 36.7566V39.9942C141.759 40.1223 141.845 40.2419 141.964 40.2675C141.99 40.2761 142.024 40.2761 142.058 40.2675H144.177C144.305 40.2419 144.424 40.3273 144.45 40.4469C144.459 40.4725 144.459 40.5067 144.45 40.5409V43.172C144.476 43.3001 144.39 43.4197 144.271 43.4453C144.245 43.4539 144.211 43.4539 144.177 43.4453H142.058C141.93 43.4197 141.81 43.5051 141.785 43.6247C141.776 43.6503 141.776 43.6845 141.785 43.7187L141.759 50.3391Z" fill="white"/>
<path d="M146.867 40.3016H154.146C154.726 40.2845 155.307 40.4298 155.811 40.7288C156.256 41.0021 156.64 41.378 156.922 41.8222C157.212 42.2835 157.417 42.7875 157.545 43.3171C157.674 43.8553 157.742 44.4106 157.742 44.9658V53.4826C157.768 53.6108 157.682 53.7304 157.563 53.756C157.537 53.7645 157.503 53.7645 157.469 53.756H148.465C147.995 53.7731 147.542 53.6022 147.201 53.2776C146.876 52.9615 146.611 52.5771 146.44 52.15C146.261 51.74 146.141 51.3043 146.064 50.8601C146.005 50.5355 145.97 50.2109 145.962 49.8777C145.97 49.4164 146.022 48.9551 146.116 48.5109C146.21 48.0326 146.372 47.5627 146.603 47.1271C146.816 46.7085 147.115 46.3411 147.482 46.0507C147.858 45.7517 148.32 45.598 148.798 45.615H153.112C153.496 45.6407 153.881 45.5211 154.188 45.2904C154.436 45.111 154.581 44.8291 154.59 44.5301C154.581 44.2653 154.487 44.0176 154.316 43.804C154.171 43.5734 153.915 43.4367 153.642 43.4453H146.859C146.731 43.4709 146.611 43.3855 146.586 43.2659C146.577 43.2402 146.577 43.2061 146.586 43.1719V40.5408C146.568 40.4127 146.662 40.3016 146.782 40.2845C146.816 40.2931 146.842 40.3016 146.867 40.3016ZM154.325 50.732C154.453 50.7576 154.573 50.6722 154.598 50.5526C154.607 50.5269 154.607 50.4928 154.598 50.4586V48.9124C154.624 48.7843 154.539 48.6647 154.419 48.6391C154.393 48.6305 154.359 48.6305 154.325 48.6391H149.729C149.498 48.6391 149.276 48.7501 149.14 48.9381C148.986 49.126 148.909 49.3566 148.909 49.5958C148.909 49.8777 149.003 50.1511 149.182 50.3732C149.353 50.5953 149.627 50.7234 149.909 50.7063L154.325 50.732Z" fill="white"/>
<path d="M160.057 35.2446H162.688C162.816 35.2189 162.936 35.3044 162.961 35.4239C162.97 35.4496 162.97 35.4837 162.961 35.5179V53.4912C162.987 53.6194 162.902 53.739 162.782 53.7646C162.756 53.7731 162.722 53.7731 162.688 53.7646H160.057C159.929 53.7902 159.809 53.7048 159.784 53.5852C159.775 53.5596 159.775 53.5254 159.784 53.4912V35.5008C159.767 35.3727 159.852 35.2616 159.98 35.2446C160.006 35.2446 160.031 35.2446 160.057 35.2446Z" fill="white"/>
<path d="M46.9891 31.3919L63.6127 29.8713L108.862 33.0662L66.0131 27.4111L45.4771 17.4335L57.6073 28.8377L46.9891 31.3919Z" fill="#FFD335"/>
<path d="M116.302 20.2269L105.496 28.3423L109.955 23.0887L109.614 22.3625L57.3851 15.3919L116.302 20.2269Z" fill="#FFD335"/>
<path d="M117.071 19.5862L119.865 17.1516C119.865 17.1516 117.533 16.0326 116.661 15.7079C115.568 15.2979 111.664 14.418 111.664 14.418L117.071 19.5862Z" fill="#FFD335"/>
<path d="M103.395 10.7789L108.862 14.0507L43.572 10.3347L38.0878 7.83179L44.1273 9.38651L101.806 12.2995L103.942 11.8638L103.395 10.7789Z" fill="#FFD335"/>
<path d="M14.9206 16.1094L14.4337 10.8985L35.918 5.56806L32.817 4.21835C33.5004 3.90228 34.2266 3.7058 34.9697 3.61184C36.2255 3.45807 58.0942 1.39934 70.8822 1.42497C82.9698 1.4506 87.1043 1.21995 98.5427 6.11478C109.896 11.5734 109.656 13.0256 123.444 14.606C132.251 15.614 137.812 16.3572 142.699 18.6465C145.014 19.7229 147.243 21.5424 149.319 23.6268L148.029 26.1127L150.848 23.1911C150.848 23.1911 147.576 20.0219 144.074 18.1084C140.665 16.2376 135.224 14.7683 127.655 14.0763C111.22 12.5814 109.673 10.2237 106.034 8.54083C102.395 6.85797 93.0584 0.152144 77.1694 0.126517C61.2805 0.100889 33.3979 2.1767 27.5293 3.43244L28.1187 4.09876L29.4086 4.30377L32.0995 5.65348L13.084 10.2664L14.9206 16.1094Z" fill="#FFD335"/>
<path d="M16.1422 10.7875L20.7466 12.5131C20.7466 12.5131 40.249 10.6252 45.7674 13.4015C45.7674 13.4015 42.3675 10.9669 34.312 10.7875C26.2565 10.6081 16.1422 10.7875 16.1422 10.7875Z" fill="#FFD335"/>
</svg>
